<mxfile host="app.diagrams.net" modified="2023-02-28T11:42:12.583Z" agent="5.0 (X11; Ubuntu)" etag="u68NwDCWMAijpKRfz2XF" version="20.6.0" type="github">
  <diagram id="C5RBs43oDa-KdzZeNtuy" name="Page-1">
    <mxGraphModel dx="1593" dy="899" grid="1" gridSize="10" guides="1" tooltips="1" connect="1" arrows="1" fold="1" page="1" pageScale="1" pageWidth="827" pageHeight="1169" math="0" shadow="0">
      <root>
        <mxCell id="WIyWlLk6GJQsqaUBKTNV-0" />
        <mxCell id="WIyWlLk6GJQsqaUBKTNV-1" parent="WIyWlLk6GJQsqaUBKTNV-0" />
        <mxCell id="RZ5qS3__V9IMr34pqo4k-3" style="edgeStyle=orthogonalEdgeStyle;rounded=0;orthogonalLoop=1;jettySize=auto;html=1;exitX=1;exitY=0.5;exitDx=0;exitDy=0;entryX=0;entryY=0.5;entryDx=0;entryDy=0;" edge="1" parent="WIyWlLk6GJQsqaUBKTNV-1" source="WIyWlLk6GJQsqaUBKTNV-6" target="WIyWlLk6GJQsqaUBKTNV-7">
          <mxGeometry relative="1" as="geometry" />
        </mxCell>
        <mxCell id="RZ5qS3__V9IMr34pqo4k-7" style="edgeStyle=orthogonalEdgeStyle;rounded=0;orthogonalLoop=1;jettySize=auto;html=1;entryX=0.5;entryY=0;entryDx=0;entryDy=0;exitX=0.5;exitY=1;exitDx=0;exitDy=0;" edge="1" parent="WIyWlLk6GJQsqaUBKTNV-1" source="WIyWlLk6GJQsqaUBKTNV-6" target="RZ5qS3__V9IMr34pqo4k-8">
          <mxGeometry relative="1" as="geometry">
            <mxPoint x="139.95689655172396" y="209.9655172413793" as="targetPoint" />
          </mxGeometry>
        </mxCell>
        <mxCell id="RZ5qS3__V9IMr34pqo4k-20" style="edgeStyle=orthogonalEdgeStyle;rounded=0;orthogonalLoop=1;jettySize=auto;html=1;exitX=0;exitY=0.5;exitDx=0;exitDy=0;entryX=0.5;entryY=0;entryDx=0;entryDy=0;" edge="1" parent="WIyWlLk6GJQsqaUBKTNV-1" source="WIyWlLk6GJQsqaUBKTNV-6" target="RZ5qS3__V9IMr34pqo4k-10">
          <mxGeometry relative="1" as="geometry" />
        </mxCell>
        <mxCell id="WIyWlLk6GJQsqaUBKTNV-6" value="Already Have Account?" style="rhombus;whiteSpace=wrap;html=1;shadow=0;fontFamily=Helvetica;fontSize=12;align=center;strokeWidth=1;spacing=6;spacingTop=-4;" parent="WIyWlLk6GJQsqaUBKTNV-1" vertex="1">
          <mxGeometry x="170" y="170" width="100" height="80" as="geometry" />
        </mxCell>
        <mxCell id="RZ5qS3__V9IMr34pqo4k-30" style="edgeStyle=orthogonalEdgeStyle;rounded=0;orthogonalLoop=1;jettySize=auto;html=1;exitX=0.5;exitY=1;exitDx=0;exitDy=0;entryX=0.5;entryY=0;entryDx=0;entryDy=0;" edge="1" parent="WIyWlLk6GJQsqaUBKTNV-1" source="WIyWlLk6GJQsqaUBKTNV-7" target="RZ5qS3__V9IMr34pqo4k-28">
          <mxGeometry relative="1" as="geometry" />
        </mxCell>
        <mxCell id="WIyWlLk6GJQsqaUBKTNV-7" value="Signup " style="rounded=1;whiteSpace=wrap;html=1;fontSize=12;glass=0;strokeWidth=1;shadow=0;" parent="WIyWlLk6GJQsqaUBKTNV-1" vertex="1">
          <mxGeometry x="335" y="190" width="120" height="40" as="geometry" />
        </mxCell>
        <mxCell id="RZ5qS3__V9IMr34pqo4k-1" style="edgeStyle=orthogonalEdgeStyle;rounded=0;orthogonalLoop=1;jettySize=auto;html=1;exitX=0.5;exitY=1;exitDx=0;exitDy=0;" edge="1" parent="WIyWlLk6GJQsqaUBKTNV-1" source="RZ5qS3__V9IMr34pqo4k-0" target="WIyWlLk6GJQsqaUBKTNV-6">
          <mxGeometry relative="1" as="geometry" />
        </mxCell>
        <mxCell id="RZ5qS3__V9IMr34pqo4k-0" value="User Opens the System" style="rounded=1;whiteSpace=wrap;html=1;fontSize=12;glass=0;strokeWidth=1;shadow=0;" vertex="1" parent="WIyWlLk6GJQsqaUBKTNV-1">
          <mxGeometry x="155" y="110" width="130" height="40" as="geometry" />
        </mxCell>
        <mxCell id="RZ5qS3__V9IMr34pqo4k-4" value="&lt;div&gt;No&lt;/div&gt;" style="text;html=1;align=center;verticalAlign=middle;resizable=0;points=[];autosize=1;strokeColor=none;fillColor=none;" vertex="1" parent="WIyWlLk6GJQsqaUBKTNV-1">
          <mxGeometry x="270" y="190" width="40" height="30" as="geometry" />
        </mxCell>
        <mxCell id="RZ5qS3__V9IMr34pqo4k-26" style="edgeStyle=orthogonalEdgeStyle;rounded=0;orthogonalLoop=1;jettySize=auto;html=1;exitX=1;exitY=0.5;exitDx=0;exitDy=0;entryX=0;entryY=0.5;entryDx=0;entryDy=0;" edge="1" parent="WIyWlLk6GJQsqaUBKTNV-1" source="RZ5qS3__V9IMr34pqo4k-8" target="RZ5qS3__V9IMr34pqo4k-23">
          <mxGeometry relative="1" as="geometry" />
        </mxCell>
        <mxCell id="RZ5qS3__V9IMr34pqo4k-8" value="Login " style="rounded=1;whiteSpace=wrap;html=1;" vertex="1" parent="WIyWlLk6GJQsqaUBKTNV-1">
          <mxGeometry x="175" y="450" width="90" height="30" as="geometry" />
        </mxCell>
        <mxCell id="RZ5qS3__V9IMr34pqo4k-9" value="Yes" style="text;html=1;align=center;verticalAlign=middle;resizable=0;points=[];autosize=1;strokeColor=none;fillColor=none;" vertex="1" parent="WIyWlLk6GJQsqaUBKTNV-1">
          <mxGeometry x="212" y="285" width="40" height="30" as="geometry" />
        </mxCell>
        <mxCell id="RZ5qS3__V9IMr34pqo4k-15" style="edgeStyle=orthogonalEdgeStyle;rounded=0;orthogonalLoop=1;jettySize=auto;html=1;" edge="1" parent="WIyWlLk6GJQsqaUBKTNV-1" source="RZ5qS3__V9IMr34pqo4k-10" target="RZ5qS3__V9IMr34pqo4k-12">
          <mxGeometry relative="1" as="geometry" />
        </mxCell>
        <mxCell id="RZ5qS3__V9IMr34pqo4k-10" value="Email for Password Recovery" style="rounded=1;whiteSpace=wrap;html=1;fontSize=12;glass=0;strokeWidth=1;shadow=0;" vertex="1" parent="WIyWlLk6GJQsqaUBKTNV-1">
          <mxGeometry x="40" y="250" width="120" height="40" as="geometry" />
        </mxCell>
        <mxCell id="RZ5qS3__V9IMr34pqo4k-16" style="edgeStyle=orthogonalEdgeStyle;rounded=0;orthogonalLoop=1;jettySize=auto;html=1;entryX=0.5;entryY=0;entryDx=0;entryDy=0;" edge="1" parent="WIyWlLk6GJQsqaUBKTNV-1" source="RZ5qS3__V9IMr34pqo4k-12" target="RZ5qS3__V9IMr34pqo4k-13">
          <mxGeometry relative="1" as="geometry" />
        </mxCell>
        <mxCell id="RZ5qS3__V9IMr34pqo4k-12" value="Get Password Reset Link" style="rounded=1;whiteSpace=wrap;html=1;fontSize=12;glass=0;strokeWidth=1;shadow=0;" vertex="1" parent="WIyWlLk6GJQsqaUBKTNV-1">
          <mxGeometry x="40" y="360" width="120" height="40" as="geometry" />
        </mxCell>
        <mxCell id="RZ5qS3__V9IMr34pqo4k-17" style="edgeStyle=orthogonalEdgeStyle;rounded=0;orthogonalLoop=1;jettySize=auto;html=1;entryX=0.5;entryY=1;entryDx=0;entryDy=0;" edge="1" parent="WIyWlLk6GJQsqaUBKTNV-1" source="RZ5qS3__V9IMr34pqo4k-13" target="RZ5qS3__V9IMr34pqo4k-8">
          <mxGeometry relative="1" as="geometry">
            <Array as="points">
              <mxPoint x="220" y="500" />
            </Array>
          </mxGeometry>
        </mxCell>
        <mxCell id="RZ5qS3__V9IMr34pqo4k-13" value="Recover Password" style="rounded=1;whiteSpace=wrap;html=1;fontSize=12;glass=0;strokeWidth=1;shadow=0;" vertex="1" parent="WIyWlLk6GJQsqaUBKTNV-1">
          <mxGeometry x="40" y="480" width="120" height="40" as="geometry" />
        </mxCell>
        <mxCell id="RZ5qS3__V9IMr34pqo4k-53" style="edgeStyle=orthogonalEdgeStyle;rounded=0;orthogonalLoop=1;jettySize=auto;html=1;exitX=0.5;exitY=1;exitDx=0;exitDy=0;entryX=0.5;entryY=0;entryDx=0;entryDy=0;" edge="1" parent="WIyWlLk6GJQsqaUBKTNV-1" source="RZ5qS3__V9IMr34pqo4k-23" target="RZ5qS3__V9IMr34pqo4k-33">
          <mxGeometry relative="1" as="geometry" />
        </mxCell>
        <mxCell id="RZ5qS3__V9IMr34pqo4k-23" value="Dashboard" style="rounded=1;whiteSpace=wrap;html=1;fontSize=12;glass=0;strokeWidth=1;shadow=0;" vertex="1" parent="WIyWlLk6GJQsqaUBKTNV-1">
          <mxGeometry x="335" y="445" width="120" height="40" as="geometry" />
        </mxCell>
        <mxCell id="RZ5qS3__V9IMr34pqo4k-31" style="edgeStyle=orthogonalEdgeStyle;rounded=0;orthogonalLoop=1;jettySize=auto;html=1;exitX=0.5;exitY=1;exitDx=0;exitDy=0;entryX=0.5;entryY=0;entryDx=0;entryDy=0;" edge="1" parent="WIyWlLk6GJQsqaUBKTNV-1" source="RZ5qS3__V9IMr34pqo4k-28" target="RZ5qS3__V9IMr34pqo4k-29">
          <mxGeometry relative="1" as="geometry" />
        </mxCell>
        <mxCell id="RZ5qS3__V9IMr34pqo4k-28" value="Enter Name and Email " style="rounded=1;whiteSpace=wrap;html=1;fontSize=12;glass=0;strokeWidth=1;shadow=0;" vertex="1" parent="WIyWlLk6GJQsqaUBKTNV-1">
          <mxGeometry x="335" y="272" width="120" height="40" as="geometry" />
        </mxCell>
        <mxCell id="RZ5qS3__V9IMr34pqo4k-32" style="edgeStyle=orthogonalEdgeStyle;rounded=0;orthogonalLoop=1;jettySize=auto;html=1;exitX=0.5;exitY=1;exitDx=0;exitDy=0;entryX=0.5;entryY=0;entryDx=0;entryDy=0;" edge="1" parent="WIyWlLk6GJQsqaUBKTNV-1" source="RZ5qS3__V9IMr34pqo4k-29" target="RZ5qS3__V9IMr34pqo4k-23">
          <mxGeometry relative="1" as="geometry" />
        </mxCell>
        <mxCell id="RZ5qS3__V9IMr34pqo4k-29" value="Get Email for Link to Set Password and Space Name" style="rounded=1;whiteSpace=wrap;html=1;fontSize=12;glass=0;strokeWidth=1;shadow=0;" vertex="1" parent="WIyWlLk6GJQsqaUBKTNV-1">
          <mxGeometry x="335" y="357" width="120" height="50" as="geometry" />
        </mxCell>
        <mxCell id="RZ5qS3__V9IMr34pqo4k-50" style="edgeStyle=orthogonalEdgeStyle;rounded=0;orthogonalLoop=1;jettySize=auto;html=1;exitX=0;exitY=0.5;exitDx=0;exitDy=0;entryX=1;entryY=0.5;entryDx=0;entryDy=0;" edge="1" parent="WIyWlLk6GJQsqaUBKTNV-1" source="RZ5qS3__V9IMr34pqo4k-33" target="RZ5qS3__V9IMr34pqo4k-35">
          <mxGeometry relative="1" as="geometry" />
        </mxCell>
        <mxCell id="RZ5qS3__V9IMr34pqo4k-33" value="Configure Email Templates" style="rounded=1;whiteSpace=wrap;html=1;fontSize=12;glass=0;strokeWidth=1;shadow=0;" vertex="1" parent="WIyWlLk6GJQsqaUBKTNV-1">
          <mxGeometry x="335" y="540" width="120" height="40" as="geometry" />
        </mxCell>
        <mxCell id="RZ5qS3__V9IMr34pqo4k-51" style="edgeStyle=orthogonalEdgeStyle;rounded=0;orthogonalLoop=1;jettySize=auto;html=1;exitX=0;exitY=0.5;exitDx=0;exitDy=0;entryX=1;entryY=0.5;entryDx=0;entryDy=0;" edge="1" parent="WIyWlLk6GJQsqaUBKTNV-1" source="RZ5qS3__V9IMr34pqo4k-35" target="RZ5qS3__V9IMr34pqo4k-37">
          <mxGeometry relative="1" as="geometry" />
        </mxCell>
        <mxCell id="RZ5qS3__V9IMr34pqo4k-35" value="Configure Landing Page" style="rounded=1;whiteSpace=wrap;html=1;fontSize=12;glass=0;strokeWidth=1;shadow=0;" vertex="1" parent="WIyWlLk6GJQsqaUBKTNV-1">
          <mxGeometry x="187" y="540" width="120" height="40" as="geometry" />
        </mxCell>
        <mxCell id="RZ5qS3__V9IMr34pqo4k-57" style="edgeStyle=orthogonalEdgeStyle;rounded=0;orthogonalLoop=1;jettySize=auto;html=1;exitX=0.5;exitY=1;exitDx=0;exitDy=0;entryX=0.5;entryY=0;entryDx=0;entryDy=0;" edge="1" parent="WIyWlLk6GJQsqaUBKTNV-1" source="RZ5qS3__V9IMr34pqo4k-37" target="RZ5qS3__V9IMr34pqo4k-43">
          <mxGeometry relative="1" as="geometry" />
        </mxCell>
        <mxCell id="RZ5qS3__V9IMr34pqo4k-37" value="Add Customer" style="rounded=1;whiteSpace=wrap;html=1;fontSize=12;glass=0;strokeWidth=1;shadow=0;" vertex="1" parent="WIyWlLk6GJQsqaUBKTNV-1">
          <mxGeometry x="40" y="540" width="120" height="40" as="geometry" />
        </mxCell>
        <mxCell id="RZ5qS3__V9IMr34pqo4k-58" style="edgeStyle=orthogonalEdgeStyle;rounded=0;orthogonalLoop=1;jettySize=auto;html=1;exitX=1;exitY=0.5;exitDx=0;exitDy=0;entryX=0;entryY=0.5;entryDx=0;entryDy=0;" edge="1" parent="WIyWlLk6GJQsqaUBKTNV-1" source="RZ5qS3__V9IMr34pqo4k-43" target="RZ5qS3__V9IMr34pqo4k-44">
          <mxGeometry relative="1" as="geometry" />
        </mxCell>
        <mxCell id="RZ5qS3__V9IMr34pqo4k-43" value="Send Testimonial Email with Link to Customers" style="rounded=1;whiteSpace=wrap;html=1;fontSize=12;glass=0;strokeWidth=1;shadow=0;" vertex="1" parent="WIyWlLk6GJQsqaUBKTNV-1">
          <mxGeometry x="40" y="610" width="125" height="60" as="geometry" />
        </mxCell>
        <mxCell id="RZ5qS3__V9IMr34pqo4k-61" style="edgeStyle=orthogonalEdgeStyle;rounded=0;orthogonalLoop=1;jettySize=auto;html=1;exitX=1;exitY=0.5;exitDx=0;exitDy=0;entryX=0;entryY=0.5;entryDx=0;entryDy=0;" edge="1" parent="WIyWlLk6GJQsqaUBKTNV-1" source="RZ5qS3__V9IMr34pqo4k-44" target="RZ5qS3__V9IMr34pqo4k-45">
          <mxGeometry relative="1" as="geometry" />
        </mxCell>
        <mxCell id="RZ5qS3__V9IMr34pqo4k-44" value="Customers Send Testimonial in Text or Video" style="rounded=1;whiteSpace=wrap;html=1;fontSize=12;glass=0;strokeWidth=1;shadow=0;" vertex="1" parent="WIyWlLk6GJQsqaUBKTNV-1">
          <mxGeometry x="190" y="610" width="125" height="60" as="geometry" />
        </mxCell>
        <mxCell id="RZ5qS3__V9IMr34pqo4k-62" style="edgeStyle=orthogonalEdgeStyle;rounded=0;orthogonalLoop=1;jettySize=auto;html=1;exitX=0.5;exitY=1;exitDx=0;exitDy=0;entryX=0.5;entryY=0;entryDx=0;entryDy=0;" edge="1" parent="WIyWlLk6GJQsqaUBKTNV-1" source="RZ5qS3__V9IMr34pqo4k-45" target="RZ5qS3__V9IMr34pqo4k-46">
          <mxGeometry relative="1" as="geometry" />
        </mxCell>
        <mxCell id="RZ5qS3__V9IMr34pqo4k-45" value="Testimonials from Customers received" style="rounded=1;whiteSpace=wrap;html=1;fontSize=12;glass=0;strokeWidth=1;shadow=0;" vertex="1" parent="WIyWlLk6GJQsqaUBKTNV-1">
          <mxGeometry x="335" y="610" width="125" height="60" as="geometry" />
        </mxCell>
        <mxCell id="RZ5qS3__V9IMr34pqo4k-63" style="edgeStyle=orthogonalEdgeStyle;rounded=0;orthogonalLoop=1;jettySize=auto;html=1;exitX=0;exitY=0.5;exitDx=0;exitDy=0;entryX=1;entryY=0.5;entryDx=0;entryDy=0;" edge="1" parent="WIyWlLk6GJQsqaUBKTNV-1" source="RZ5qS3__V9IMr34pqo4k-46" target="RZ5qS3__V9IMr34pqo4k-47">
          <mxGeometry relative="1" as="geometry" />
        </mxCell>
        <mxCell id="RZ5qS3__V9IMr34pqo4k-46" value="Set Selected Testimonial&#39;s Status to Published" style="rounded=1;whiteSpace=wrap;html=1;fontSize=12;glass=0;strokeWidth=1;shadow=0;" vertex="1" parent="WIyWlLk6GJQsqaUBKTNV-1">
          <mxGeometry x="335" y="700" width="125" height="60" as="geometry" />
        </mxCell>
        <mxCell id="RZ5qS3__V9IMr34pqo4k-64" style="edgeStyle=orthogonalEdgeStyle;rounded=0;orthogonalLoop=1;jettySize=auto;html=1;exitX=0;exitY=0.5;exitDx=0;exitDy=0;entryX=1;entryY=0.5;entryDx=0;entryDy=0;" edge="1" parent="WIyWlLk6GJQsqaUBKTNV-1" source="RZ5qS3__V9IMr34pqo4k-47" target="RZ5qS3__V9IMr34pqo4k-48">
          <mxGeometry relative="1" as="geometry" />
        </mxCell>
        <mxCell id="RZ5qS3__V9IMr34pqo4k-47" value="Create Testimonial Groups" style="rounded=1;whiteSpace=wrap;html=1;fontSize=12;glass=0;strokeWidth=1;shadow=0;" vertex="1" parent="WIyWlLk6GJQsqaUBKTNV-1">
          <mxGeometry x="187" y="700" width="125" height="60" as="geometry" />
        </mxCell>
        <mxCell id="RZ5qS3__V9IMr34pqo4k-48" value="Get Embed Code as per Groups and Use Them in Any Platforms" style="rounded=1;whiteSpace=wrap;html=1;fontSize=12;glass=0;strokeWidth=1;shadow=0;" vertex="1" parent="WIyWlLk6GJQsqaUBKTNV-1">
          <mxGeometry x="40" y="700" width="125" height="60" as="geometry" />
        </mxCell>
      </root>
    </mxGraphModel>
  </diagram>
</mxfile>
